<?xml version='1.0' encoding='iso-8859-1'?>
<!-- Uploaded to: SVG Repo, www.svgrepo.com, Generator: SVG Repo Mixer Tools -->
<svg fill="#FF0000" height="800px" width="800px" version="1.1" xmlns="http://www.w3.org/2000/svg" viewBox="0 0 487.4 487.4" xmlns:xlink="http://www.w3.org/1999/xlink" enable-background="new 0 0 487.4 487.4">
  <g>
    <path d="M381.6,144.1h-63.3V25.9H0v369.2h33.2c1.1,36.4,31.8,66.4,68.4,66.4s67.3-30,68.4-66.4h154.6c1.1,36.4,31.8,66.4,68.4,66.4   s67.3-30,68.4-66.4h26V251L381.6,144.1z M101.6,440.7c-25.9,0-47.7-21.8-47.7-47.7s21.8-47.7,47.7-47.7s47.7,21.8,47.7,47.7   S127.5,440.7,101.6,440.7z M297.6,374.4H167.4c-8.3-28.5-34.9-49.8-65.8-49.8s-57.5,21.3-65.8,49.8H20.7V46.6h276.9V374.4z    M387.9,179.6l65.5,66.2h-65.5V179.6z M393,440.7c-25.9,0-47.7-21.8-47.7-47.7s21.8-47.7,47.7-47.7s47.7,21.8,47.7,47.7   S419,440.7,393,440.7z M466.7,374.4h-7.9l0,0c-8.3-28.5-34.9-49.8-65.8-49.8s-57.5,21.3-65.8,49.8h-7.9V164.9H367v101.6h99.7V374.4   z"/>
  </g>
</svg>